<?xml version="1.0" standalone="no"?><!DOCTYPE svg PUBLIC "-//W3C//DTD SVG 1.1//EN" "http://www.w3.org/Graphics/SVG/1.1/DTD/svg11.dtd"><svg t="1578901862421" class="icon" viewBox="0 0 1024 1024" version="1.1" xmlns="http://www.w3.org/2000/svg" p-id="1146" xmlns:xlink="http://www.w3.org/1999/xlink" width="200" height="200"><defs><style type="text/css"></style></defs><path d="M443.920879 811.885714c0 14.065934-22.505495 25.318681-49.512088 25.318682-27.569231 0-49.512088-11.252747-49.512088-25.318682s99.024176-14.065934 99.024176 0zM673.476923 811.885714c0 14.065934-22.505495 25.318681-49.512088 25.318682s-49.512088-11.252747-49.512088-25.318682 99.024176-14.065934 99.024176 0z" fill="#F4A34A" p-id="1147"></path><path d="M257.125275 491.182418a317.327473 252.061538 90 1 0 504.123077 0 317.327473 252.061538 90 1 0-504.123077 0Z" fill="#070707" p-id="1148"></path><path d="M433.230769 304.386813a50.637363 33.758242 90 1 0 67.516484 0 50.637363 33.758242 90 1 0-67.516484 0Z" fill="#F9F7F8" p-id="1149"></path><path d="M528.879121 304.386813a50.074725 33.758242 90 1 0 67.516483 0 50.074725 33.758242 90 1 0-67.516483 0Z" fill="#F9F7F8" p-id="1150"></path><path d="M604.272527 398.90989c0 14.065934-37.696703 25.318681-83.832967 25.318681s-83.832967-11.252747-83.832967-25.318681c-0.562637-14.065934 167.665934-14.065934 167.665934 0z" fill="#F4A34A" p-id="1151"></path><path d="M451.797802 283.006593a19.12967 11.252747 90 1 0 22.505495 0 19.12967 11.252747 90 1 0-22.505495 0Z" fill="#050505" p-id="1152"></path><path d="M558.698901 325.204396a19.12967 11.252747 90 1 0 22.505495 0 19.12967 11.252747 90 1 0-22.505495 0Z" fill="#050505" p-id="1153"></path><path d="M382.593407 491.182418v68.641758c0 122.654945 59.63956 221.679121 133.907692 221.679121s133.907692-99.024176 133.907692-221.679121V491.182418H382.593407z" fill="#FCFCFC" p-id="1154"></path><path d="M213.802198 662.224176l28.131868-143.472528c4.501099-23.068132 23.068132-38.259341 41.635165-34.883516 18.004396 3.375824 29.257143 23.068132 26.443956 45.010989 0 2.250549-1.125275 3.938462-1.687912 6.189011L275.692308 618.338462c0 0.562637-0.562637 1.125275-1.125275 1.687912l-15.191209 30.945055c-1.125275 2.250549-1.687912 3.938462-2.250549 6.189011-4.501099 22.505495-13.503297 50.637363-17.441759 52.887912-3.938462 2.250549 0 0 0 0-18.567033-3.375824-30.382418-24.756044-25.881318-47.824176zM797.257143 289.758242L715.674725 410.725275c-12.940659 19.12967-10.69011 43.323077 5.063737 54.013187 15.191209 10.127473 37.134066 4.501099 50.074725-12.94066 1.125275-1.687912 2.250549-3.375824 3.375824-5.626373l35.446154-82.145055c0.562637-0.562637 0.562637-1.125275 0.562637-2.25055 0 0 12.940659-36.571429 14.065934-38.821978 12.378022-19.12967 26.443956-45.573626 25.318682-49.512088-1.125275-4.501099 0 0 0 0-15.753846-10.127473-39.384615-3.375824-52.325275 16.316484z" fill="#020202" p-id="1155"></path><path d="M737.054945 502.435165H281.318681c-18.567033 0-33.758242-15.191209-33.758241-33.758242v-1.125275c0-18.567033 15.191209-33.758242 33.758241-33.758241h455.736264c18.567033 0 33.758242 15.191209 33.758242 33.758241v1.125275c0 18.567033-15.191209 33.758242-33.758242 33.758242z" fill="#F4162C" p-id="1156"></path><path d="M308.325275 601.459341V495.120879c0-19.12967 15.191209-34.320879 34.320879-34.320879 19.12967 0 34.320879 15.191209 34.320879 34.320879v106.338462c0 19.12967-15.191209 34.320879-34.320879 34.320879-18.567033 0-34.320879-15.191209-34.320879-34.320879z" fill="#F4162C" p-id="1157"></path></svg>